<?xml version="1.0" encoding="UTF-8"?>
<svg id="Layer_2" xmlns="http://www.w3.org/2000/svg" viewBox="0 0 69.32 66.09">
  <defs>
    <style>
      .cls-1 {
        fill: #35495e;
      }
    </style>
  </defs>
  <g id="Layer_1-2" data-name="Layer_1">
    <path class="cls-1" d="M47.1,52.49C80.17,39.08,67.4,6.07,64.33.21c-.15-.29-.54-.27-.68.03-.92,1.83-4.31,8.12-28.68,11.53C6.21,15.8,6.18,37.61,6.68,43.33c.04.49.62.67.91.28,2.15-2.91,9.11-10.73,22.49-12.06,14.48-1.45,24.48-9.31,26.22-10.64.05-.04.11.03.07.08-1.33,1.78-9.42,11.79-26.73,14.3S2.57,56.37.2,61.05c-.34.67-.24,1.49.25,2.04.75.84,2.08,2.06,4,2.91.64.28,1.38-.06,1.63-.75,1.03-2.78,3.82-9.68,7.21-13.09,0,0,11.83,9.25,33.81.34Z"/>
  </g>
</svg>