<?xml version="1.0" encoding="UTF-8"?>
<svg id="Layer_2" xmlns="http://www.w3.org/2000/svg" viewBox="0 0 76.49 64.21">
  <defs>
    <style>
      .cls-1 {
        fill: #35495e;
      }
    </style>
  </defs>
  <g id="Layer_1-2" data-name="Layer_1">
    <g>
      <g>
        <path class="cls-1" d="M0,31.97v12.51c0,1.43,1.11,2.59,2.48,2.59h13.81c.64,0,1.25.26,1.71.72l15.76,15.7c.46.46,1.07.72,1.71.72h6.44c1.37,0,2.48-1.16,2.48-2.59v-29.65"/>
        <path class="cls-1" d="M0,32.24v-12.51c0-1.43,1.11-2.59,2.48-2.59h13.81c.64,0,1.25-.26,1.71-.72L33.77.72c.46-.46,1.07-.72,1.71-.72h6.44c1.37,0,2.48,1.16,2.48,2.59v29.65"/>
      </g>
      <path class="cls-1" d="M49.35,19.82c0,1.42.97,2.59,2.29,2.93,4.16,1.08,7.24,5.02,7.24,9.72s-3.08,8.64-7.24,9.72c-1.32.34-2.29,1.51-2.29,2.93h0c0,1.91,1.68,3.37,3.45,2.95,6.88-1.65,12.01-8.11,12.01-15.83s-5.13-14.18-12.01-15.83c-1.77-.42-3.45,1.04-3.45,2.93v.47Z"/>
      <path class="cls-1" d="M54.5,60.26c-1.47,0-2.72-1.35-2.72-2.94,0-1.39.94-2.54,2.34-2.91,9.66-2.5,16.4-11.54,16.4-21.99s-6.74-19.49-16.4-21.99c-1.4-.36-2.34-1.52-2.34-2.88v-.93c0-1.6,1.24-2.94,2.72-2.94.19,0,.39.02.58.07,12.61,3.01,21.41,14.62,21.41,28.23s-8.8,25.21-21.41,28.22c-.19.05-.39.07-.58.07h0Z"/>
    </g>
  </g>
</svg>