<?xml version="1.0" encoding="UTF-8"?>
<svg id="Layer_2" data-name="Layer 2" xmlns="http://www.w3.org/2000/svg" viewBox="0 0 376.15 429.36">
  <defs>
    <style>
      .cls-1 {
        fill: #fff;
        stroke-width: 0px;
      }
    </style>
  </defs>
  <g id="Layer_1-2" data-name="Layer 1">
    <g>
      <path class="cls-1" d="M189.91,429.36h-4.32c-63.22-24.14-122.42-60.96-178.18-99.49-4.31-2.76-6.65-7.33-7.35-12.35.19-50.56-.36-101.2.19-151.73.38-17.71-.65-35.58.6-53.22,5.76-19.9,67.17-50.1,86.59-63.32C120.41,31.94,153.08,11.35,188.47,0c21.56,6.02,41.08,19.22,61.6,28.37,18.61,10.11,131.32,68.89,125.9,86.53-.2,66.87,0,133.75.02,200.62,5.8,21.42-161.95,108.41-186.08,113.84ZM92.26,305.38c6.85,10.91,89.59,103.62,96.14,107.76,33.49-34.51,65.53-70.31,96.01-107.8-29.38,1.16-58.47,1.83-87.68,1.9,5.02-5.94,9.28-12.23,11.52-19.8.09-.3.67-.64,1.02-.65,26.26-.34,52.46-.84,78.71-1.59-19.83-38.91-17.29-15.58-9.24-54.44,7.98,14.49,15.8,28.69,23.75,43.14,19.77-51.84,38.47-103.76,56.34-156.15-49.85-6.84-99.72-11.45-149.89-14.24v-3.46h-32.95c-.5,10.52,1.04,21.49-.65,31.8-29.98,50.59-58.79,101.81-87.22,153.29,29.54.58,10.87-.34,27.39,21.06-7.83-.27-15.49-.54-23.25-.81ZM171.7,103.29c-51.79,2.76-103.03,7.44-154.15,14.45,17.93,52.46,36.66,104.4,56.46,156.21,31.48-57.57,63.26-114.65,97.69-170.66ZM197.07,18.37c.06,20.29.35,40.54.74,60.83.35,4.57,6.12,6.69,10.16,6.99,31.47,1.87,62.92,4.32,94.28,7.65,9.86,1.03,19.7,2.18,29.55,3.29,1.73.2,1.78.2,2.29-1.59-43.8-28.88-89.62-54.22-137.02-77.17ZM41.19,96.04c.03.1.06.19.09.29,42.44-3.15,84.73-7.96,127.24-10.15,8.31-.68,11.17-5.23,10.3-13.17.24-18.11.59-36.1.57-54.23-47.82,22.97-94.02,48.32-138.2,77.26ZM15.42,159.21c-1.15,0-1.43.5-1.42,1.5.02,19.52-.13,39.03-.13,58.55-.02,29.59.24,59.1.47,88.7,15.95-6.33,31.62-12.55,47.33-18.79-16.2-43.16-31.32-86.5-46.25-129.97ZM361.13,159.13c-14.83,41.39-28.91,83.06-44.12,124.31-1.16,3.19.23,6.5,3.31,7.73,13.91,5.53,27.73,11.1,41.67,16.57.99-38.81.56-77.65.52-116.47-.02-10.2-.04-20.39-.02-30.59,0-1-.3-1.5-1.37-1.55ZM228.6,394.73c1.17,1.68,1.19,1.71,2.88.82,41.92-21.27,82.21-45.45,120.75-72.39-14.04-5.52-28.22-10.63-42.28-16.12-2.09-.81-3.82-.55-5.51.63-25.42,28.73-48.92,59.5-75.84,87.06ZM146.94,394.22c-26.41-28.16-51.44-57.55-75.35-87.85-.65-.82-1.15-1-2.16-.61-13.26,5.11-26.53,10.22-39.84,15.2-2.35.56-3.33,3.5-1.53,5.04,37.68,25.77,76.64,49.58,117.48,70.04.51-.66.94-1.22,1.4-1.81Z"/>
      <path class="cls-1" d="M180.78,237.32V104.2h23.29c2.87,40.4,61.05,45.98,68.61,93.98,6.77,30.6-3.64,85.1-43.88,81.7,26.4-17.37,30.51-62.64,8.68-85.1-10.35-9.39-25.44-12.09-33.24-24.75,0,34.75.03,69.48-.02,104.23-.02,12.72-5.02,23.34-14.19,32.02-18.95,18.24-51.92,17.92-69.08-2.7-31.52-38.96,18.51-87.73,59.82-66.26Z"/>
    </g>
  </g>
</svg>