<?xml version="1.0" encoding="UTF-8"?>
<svg id="Layer_2" xmlns="http://www.w3.org/2000/svg" viewBox="0 0 73.43 83.32">
  <defs>
    <style>
      .cls-1 {
        fill: #edf0f1;
      }
    </style>
  </defs>
  <g id="Layer_1-2" data-name="Layer_1">
    <g>
      <g>
        <path class="cls-1" d="M47.02,19.89c-.41-.03-.77.24-.77.59,0,3.5-.03,21.02.05,38.73.08,19.72-23.84,18.17-23.84,18.17-6.66-.36-11.77-2.21-14.7-5.06.33,6.1,6.96,10.4,17.5,10.97,0,0,23.93,1.55,23.84-18.17-.08-17.71-.05-35.23-.05-38.73,0-.35.35-.62.77-.59,2.6.22,11.21,1.48,16.28,8.7-3.63-12.51-15.88-14.34-19.07-14.61Z"/>
        <path class="cls-1" d="M73.37,33.81c-.18-3.28-1.35-5.89-3.06-8.01.13.67.22,1.37.26,2.1.37,6.84-1.05,9.73-2.21,10.95.63,1.7,1.11,3.61,1.35,5.77.06.52.8.74,1.23.36,1.19-1.07,2.83-3.88,2.43-11.16Z"/>
      </g>
      <path class="cls-1" d="M29.36,25.55h-9.09c-.92,0-1.66-.77-1.66-1.73v-9.45c0-.95-.74-1.73-1.66-1.73h-2.88c-.92,0-1.66.77-1.66,1.73v9.45c0,.95-.74,1.73-1.66,1.73H1.66c-.92,0-1.66.77-1.66,1.73v3c0,.95.74,1.73,1.66,1.73h9.09c.92,0,1.66.77,1.66,1.73v9.45c0,.95.74,1.73,1.66,1.73h2.88c.92,0,1.66-.77,1.66-1.73v-9.45c0-.95.74-1.73,1.66-1.73h9.09c.92,0,1.66-.77,1.66-1.73v-3c0-.95-.74-1.73-1.66-1.73Z"/>
      <path class="cls-1" d="M65.06,36.54c-1.84-16.34-16.38-18.53-19.9-18.82-.41-.03-.77.24-.77.59,0,3.5-.03,21.02.05,38.73.08,19.72-23.84,18.17-23.84,18.17-10.82-.58-17.53-5.09-17.53-11.44,0-5.95,6.06-12.78,19.75-13.14,1.93-.05,3.86.14,5.74.5,2.15.41,5.31,1.1,8.91,2.2.46.14.95-.14.95-.55V.59c0-.33.32-.59.71-.59h3.38c.36,0,.67.23.7.53.17,1.44,1.09,5.5,5.96,7.72,5.69,2.6,18.92,5.78,19.55,17.48.4,7.29-1.24,10.09-2.43,11.16-.42.38-1.17.16-1.23-.36Z"/>
    </g>
  </g>
</svg>