<?xml version="1.0" encoding="UTF-8"?>
<svg id="Layer_2" xmlns="http://www.w3.org/2000/svg" viewBox="0 0 65.71 75.23">
  <defs>
    <style>
      .cls-1 {
        fill: #35495e;
      }
    </style>
  </defs>
  <g id="Layer_1-2" data-name="Layer_1">
    <path class="cls-1" d="M62,36.54c-1.84-16.34-16.38-18.53-19.9-18.82-.41-.03-.77.24-.77.59,0,3.5-.03,21.02.05,38.73.08,19.72-23.84,18.17-23.84,18.17-10.82-.58-17.53-5.09-17.53-11.44,0-5.95,6.06-12.78,19.75-13.14,1.93-.05,3.86.14,5.74.5,2.15.41,5.31,1.1,8.91,2.2.46.14.95-.14.95-.55V.59c0-.33.32-.59.71-.59h3.38c.36,0,.67.23.7.53.17,1.44,1.09,5.5,5.96,7.72,5.69,2.6,18.92,5.78,19.55,17.48.4,7.29-1.24,10.09-2.43,11.16-.42.38-1.17.16-1.23-.36Z"/>
  </g>
</svg>